<svg width="32" height="38" viewBox="0 0 32 38" fill="none" xmlns="http://www.w3.org/2000/svg">
<path d="M19.1429 30.2449H20.8571C21.0845 30.2449 21.3025 30.153 21.4632 29.9894C21.624 29.8257 21.7143 29.6038 21.7143 29.3725V13.6684C21.7143 13.437 21.624 13.2151 21.4632 13.0515C21.3025 12.8878 21.0845 12.7959 20.8571 12.7959H19.1429C18.9155 12.7959 18.6975 12.8878 18.5368 13.0515C18.376 13.2151 18.2857 13.437 18.2857 13.6684V29.3725C18.2857 29.6038 18.376 29.8257 18.5368 29.9894C18.6975 30.153 18.9155 30.2449 19.1429 30.2449ZM30.8571 5.81633H24.9707L22.5421 1.69401C22.2374 1.17709 21.8062 0.749355 21.2907 0.452479C20.7752 0.155603 20.193 -0.000286701 19.6007 3.95834e-07H12.3993C11.8072 -3.55355e-05 11.2253 0.155974 10.7101 0.452837C10.1949 0.749701 9.76394 1.1773 9.45929 1.69401L7.02929 5.81633H1.14286C0.839753 5.81633 0.549062 5.93889 0.334735 6.15704C0.120408 6.37519 0 6.67108 0 6.97959L0 8.14286C0 8.45138 0.120408 8.74726 0.334735 8.96541C0.549062 9.18357 0.839753 9.30612 1.14286 9.30612H2.28571V33.7347C2.28571 34.6602 2.64694 35.5479 3.28992 36.2024C3.9329 36.8568 4.80497 37.2245 5.71429 37.2245H26.2857C27.195 37.2245 28.0671 36.8568 28.7101 36.2024C29.3531 35.5479 29.7143 34.6602 29.7143 33.7347V9.30612H30.8571C31.1602 9.30612 31.4509 9.18357 31.6653 8.96541C31.8796 8.74726 32 8.45138 32 8.14286V6.97959C32 6.67108 31.8796 6.37519 31.6653 6.15704C31.4509 5.93889 31.1602 5.81633 30.8571 5.81633ZM12.2743 3.70137C12.3125 3.63665 12.3665 3.58314 12.4311 3.54605C12.4957 3.50897 12.5687 3.48958 12.6429 3.4898H19.3571C19.4312 3.48971 19.504 3.50915 19.5685 3.54623C19.6329 3.58331 19.6869 3.63676 19.725 3.70137L20.9721 5.81633H11.0279L12.2743 3.70137ZM26.2857 33.7347H5.71429V9.30612H26.2857V33.7347ZM11.1429 30.2449H12.8571C13.0845 30.2449 13.3025 30.153 13.4632 29.9894C13.624 29.8257 13.7143 29.6038 13.7143 29.3725V13.6684C13.7143 13.437 13.624 13.2151 13.4632 13.0515C13.3025 12.8878 13.0845 12.7959 12.8571 12.7959H11.1429C10.9155 12.7959 10.6975 12.8878 10.5368 13.0515C10.376 13.2151 10.2857 13.437 10.2857 13.6684V29.3725C10.2857 29.6038 10.376 29.8257 10.5368 29.9894C10.6975 30.153 10.9155 30.2449 11.1429 30.2449Z" fill="#1D1D1D"/>
</svg>
