<svg width="48" height="32" viewBox="0 0 48 32" fill="none" xmlns="http://www.w3.org/2000/svg">
<path fill-rule="evenodd" clip-rule="evenodd" d="M43.7595 0C45.5816 0 47.0588 1.45955 47.0588 3.26V28.74C47.0588 30.5405 45.5816 32 43.7595 32H16.565C15.7062 32 14.8812 31.6691 14.2654 31.0777L0.999748 18.3377C0.360609 17.7239 0 16.8807 0 16C0 15.1193 0.360609 14.2761 0.999748 13.6623L14.2654 0.922308C14.8812 0.330869 15.7062 0 16.565 0H43.7595ZM16.565 28.74L3.29936 16L16.565 3.26H43.7595V28.74H16.565Z" fill="#1D1D1D"/>
<path fill-rule="evenodd" clip-rule="evenodd" d="M38.3308 7.52946C39.0759 8.2354 39.0759 9.37993 38.3308 10.0859L23.1468 24.4706C22.4017 25.1765 21.1936 25.1765 20.4485 24.4705C19.7034 23.7646 19.7034 22.6201 20.4485 21.9142L35.6325 7.52943C36.3776 6.82351 37.5857 6.82353 38.3308 7.52946Z" fill="#1D1D1D"/>
<path fill-rule="evenodd" clip-rule="evenodd" d="M20.4485 7.52946C21.1936 6.82353 22.4017 6.82351 23.1468 7.52943L38.3308 21.9141C39.0759 22.6201 39.0759 23.7646 38.3308 24.4705C37.5857 25.1765 36.3776 25.1765 35.6325 24.4706L20.4485 10.0858C19.7034 9.37993 19.7034 8.2354 20.4485 7.52946Z" fill="#1D1D1D"/>
</svg>
