<svg width="32" height="30" viewBox="0 0 32 30" fill="none" xmlns="http://www.w3.org/2000/svg">
<path fill-rule="evenodd" clip-rule="evenodd" d="M0 2.12885C0 0.953119 0.765028 0 1.70874 0H30.2913C31.235 0 32 0.953119 32 2.12885C32 3.30458 31.235 4.2577 30.2913 4.2577H1.70874C0.765028 4.2577 0 3.30458 0 2.12885Z" fill="#1D1D1D"/>
<path fill-rule="evenodd" clip-rule="evenodd" d="M0 27.6751C0 26.4994 0.765028 25.5463 1.70874 25.5463H30.2913C31.235 25.5463 32 26.4994 32 27.6751C32 28.8508 31.235 29.804 30.2913 29.804H1.70874C0.765028 29.804 0 28.8508 0 27.6751Z" fill="#1D1D1D"/>
<path fill-rule="evenodd" clip-rule="evenodd" d="M0 14.9019C0 13.7262 0.765028 12.7731 1.70874 12.7731H30.2913C31.235 12.7731 32 13.7262 32 14.9019C32 16.0777 31.235 17.0308 30.2913 17.0308H1.70874C0.765028 17.0308 0 16.0777 0 14.9019Z" fill="#1D1D1D"/>
</svg>
