<svg width="18" height="20" viewBox="0 0 18 20" fill="none" xmlns="http://www.w3.org/2000/svg">
<path d="M5.4 11.3162C6.55312 11.3162 7.10759 11.9118 9 11.9118C10.8924 11.9118 11.4429 11.3162 12.6 11.3162C15.5813 11.3162 18 13.5571 18 16.3191V17.2721C18 18.2585 17.1362 19.0588 16.0714 19.0588H1.92857C0.86384 19.0588 2.38419e-07 18.2585 2.38419e-07 17.2721V16.3191C2.38419e-07 13.5571 2.41875 11.3162 5.4 11.3162ZM1.92857 17.2721H16.0714V16.3191C16.0714 14.5472 14.5125 13.1029 12.6 13.1029C12.0134 13.1029 11.0612 13.6985 9 13.6985C6.92277 13.6985 5.99062 13.1029 5.4 13.1029C3.4875 13.1029 1.92857 14.5472 1.92857 16.3191V17.2721ZM9 10.7206C5.8058 10.7206 3.21429 8.31962 3.21429 5.36029C3.21429 2.40096 5.8058 0 9 0C12.1942 0 14.7857 2.40096 14.7857 5.36029C14.7857 8.31962 12.1942 10.7206 9 10.7206ZM9 1.78676C6.87455 1.78676 5.14286 3.39113 5.14286 5.36029C5.14286 7.32946 6.87455 8.93382 9 8.93382C11.1254 8.93382 12.8571 7.32946 12.8571 5.36029C12.8571 3.39113 11.1254 1.78676 9 1.78676Z" fill="#EDEDED"/>
</svg>
