<svg width="20" height="15" viewBox="0 0 20 15" fill="none" xmlns="http://www.w3.org/2000/svg">
<path d="M6.81573 1.95316C5.29394 2.02466 4.30437 2.28516 3.69177 2.79817C3.5155 2.94578 3.25545 3.34785 2.9952 4.10698C2.74905 4.82498 2.54743 5.72514 2.39208 6.70413C2.14422 8.2661 2.0254 9.95518 2.01093 11.2858H3.68565C4.52273 11.2858 5.14037 10.8274 5.61655 10.1544C6.10071 9.47007 6.32744 8.70391 6.37063 8.4821L6.37513 8.46038L6.82099 6.42915C6.93554 5.90725 7.46855 5.57343 8.01148 5.68355C8.55442 5.79367 8.90169 6.30602 8.78713 6.82792L8.34339 8.84952C8.25749 9.27984 7.94421 10.2992 7.27814 11.2406C6.59776 12.2023 5.44191 13.2174 3.68565 13.2174H3.34851L2.66654 14.9959H0.581943L1.29661 13.2174H1.01543C0.472926 13.2174 0.0283964 12.8034 0.0112126 12.2822C-0.0388861 10.7626 0.0765083 8.48686 0.40562 6.41286C0.570179 5.37584 0.792597 4.36036 1.08672 3.50242C1.36675 2.6856 1.76322 1.85141 2.37183 1.34175C3.52205 0.378527 5.10438 0.0996837 6.71763 0.0238836C7.85034 -0.0293382 9.14446 0.0163919 10.4852 0.0637691C11.0563 0.0839491 11.6358 0.104428 12.2149 0.117686C12.5257 0.124802 12.8156 0.269847 13 0.510501L15.8031 4.1694L19.1484 4.66546C19.6384 4.73811 20 5.14342 20 5.61996V7.08895L20 7.09656L19.9999 7.13012C19.9998 7.15832 19.9994 7.19804 19.9983 7.24797C19.9963 7.34775 19.9918 7.48885 19.9821 7.66081C19.9627 8.00315 19.922 8.47565 19.836 8.99214C19.7505 9.50515 19.6166 10.085 19.402 10.6328C19.1911 11.1713 18.8763 11.7462 18.3893 12.1831C17.8837 12.6368 17.1555 12.9191 16.4942 13.1095C15.8013 13.3088 15.0354 13.4467 14.3391 13.5428C13.7207 13.6282 13.1386 13.6832 12.6822 13.718V15H10.6727V12.8095C10.6727 12.2886 11.1025 11.8616 11.644 11.8443L11.6457 11.8442L11.6537 11.8439L11.6891 11.8426C11.721 11.8413 11.7691 11.8393 11.8314 11.8362C11.9562 11.8302 12.1377 11.8201 12.3603 11.8045C12.8068 11.773 13.4122 11.7194 14.0534 11.6309C14.6989 11.5417 15.3572 11.4204 15.9179 11.259C16.51 11.0886 16.8647 10.9088 17.0183 10.771C17.1904 10.6166 17.3667 10.3473 17.5215 9.95211C17.6726 9.56626 17.7792 9.12298 17.8518 8.68681C17.9239 8.25412 17.9589 7.85134 17.9756 7.55572C17.9839 7.4087 17.9877 7.29014 17.9893 7.21C17.9901 7.16998 17.9904 7.13967 17.9905 7.12035L17.9906 7.09979L17.9906 7.09673L17.9906 7.09639L17.9906 7.09601L17.9905 7.08895V6.44818L15.0869 6.01761C14.8244 5.97868 14.5886 5.84141 14.4311 5.63581L11.6732 2.03601C11.201 2.02264 10.746 2.0065 10.307 1.99093L10.3068 1.99093C9.01361 1.94506 7.85929 1.90412 6.81573 1.95316Z" fill="#EDEDED"/>
</svg>
