<svg width="17" height="18" viewBox="0 0 17 18" fill="none" xmlns="http://www.w3.org/2000/svg">
<path d="M1.82143 2.25H3.64286V0.421875C3.64286 0.189844 3.84777 0 4.09821 0H5.61607C5.86652 0 6.07143 0.189844 6.07143 0.421875V2.25H10.9286V0.421875C10.9286 0.189844 11.1335 0 11.3839 0H12.9018C13.1522 0 13.3571 0.189844 13.3571 0.421875V2.25H15.1786C16.1842 2.25 17 3.00586 17 3.9375V16.3125C17 17.2441 16.1842 18 15.1786 18H1.82143C0.815848 18 -4.74862e-07 17.2441 -4.74862e-07 16.3125V3.9375C-4.74862e-07 3.00586 0.815848 2.25 1.82143 2.25ZM2.04911 16.3125H14.9509C15.0761 16.3125 15.1786 16.2176 15.1786 16.1016V5.625H1.82143V16.1016C1.82143 16.2176 1.92388 16.3125 2.04911 16.3125Z" fill="#EDEDED"/>
</svg>
