<svg width="15" height="15" viewBox="0 0 15 15" fill="none" xmlns="http://www.w3.org/2000/svg">
<path fill-rule="evenodd" clip-rule="evenodd" d="M14.0635 7.6571C14.0635 8.07131 13.7277 8.4071 13.3135 8.40709L1.99992 8.40692C1.58571 8.40691 1.24993 8.07112 1.24993 7.65691C1.24994 7.24269 1.58573 6.90691 1.99995 6.90692L13.3135 6.90709C13.7277 6.9071 14.0635 7.24289 14.0635 7.6571Z" fill="#1D1D1D"/>
<path fill-rule="evenodd" clip-rule="evenodd" d="M7.6569 1.24993C8.07112 1.24993 8.40691 1.58571 8.40692 1.99992L8.40709 13.3135C8.4071 13.7277 8.07132 14.0635 7.6571 14.0635C7.24289 14.0635 6.9071 13.7277 6.90709 13.3135L6.90692 1.99995C6.90691 1.58573 7.24269 1.24994 7.6569 1.24993Z" fill="#1D1D1D"/>
</svg>
