<svg width="11" height="11" viewBox="0 0 11 11" fill="none" xmlns="http://www.w3.org/2000/svg">
<path fill-rule="evenodd" clip-rule="evenodd" d="M10.2476 10.1872C9.95471 10.4801 9.47984 10.4801 9.18695 10.1872L1.18719 2.18718C0.894302 1.89428 0.894309 1.41941 1.18721 1.12652C1.4801 0.833633 1.95498 0.83364 2.24787 1.12654L10.2476 9.12654C10.5405 9.41944 10.5405 9.89431 10.2476 10.1872Z" fill="#1D1D1D"/>
<path fill-rule="evenodd" clip-rule="evenodd" d="M10.2479 1.12652C10.5407 1.41941 10.5408 1.89428 10.2479 2.18718L2.24811 10.1872C1.95522 10.4801 1.48035 10.4801 1.18745 10.1872C0.894554 9.89431 0.894547 9.41944 1.18744 9.12654L9.18719 1.12654C9.48008 0.83364 9.95495 0.833633 10.2479 1.12652Z" fill="#1D1D1D"/>
</svg>
